<svg width="148" height="89" xmlns="http://www.w3.org/2000/svg" xmlns:xlink="http://www.w3.org/1999/xlink" xml:space="preserve" overflow="hidden"><defs><clipPath id="clip0"><rect x="34" y="61" width="148" height="89"/></clipPath><clipPath id="clip1"><rect x="34" y="61" width="148" height="89"/></clipPath><clipPath id="clip2"><rect x="35" y="62" width="147" height="88"/></clipPath><clipPath id="clip3"><rect x="35" y="62" width="147" height="88"/></clipPath><clipPath id="clip4"><rect x="35" y="62" width="147" height="88"/></clipPath></defs><g clip-path="url(#clip0)" transform="translate(-34 -61)"><g clip-path="url(#clip1)"><g clip-path="url(#clip2)"><g clip-path="url(#clip3)"><g clip-path="url(#clip4)"><path d="M41.4218 31.9047C41.4218 33.7328 41.6076 35.1846 41.979 36.2649 42.3505 37.35 42.8785 38.5183 43.5628 39.7745 43.7877 40.1753 43.905 40.542 43.905 40.8841 43.905 41.3974 43.5921 41.8813 42.9616 42.3408L39.8821 44.3938C39.4275 44.6773 38.9973 44.8239 38.6014 44.8239 38.0881 44.8239 37.6042 44.5991 37.1496 44.1396 36.4653 43.4553 35.8787 42.6976 35.3948 41.8715 34.9109 41.0454 34.4123 40.0922 33.899 39.0071 30.0765 43.5139 25.2862 45.7673 19.528 45.7673 15.422 45.7673 12.1714 44.5991 9.77621 42.2577 7.38104 39.9212 6.18345 36.783 6.18345 32.8481 6.18345 28.6883 7.66455 25.3351 10.6316 22.7981 13.5938 20.2612 17.5874 18.9903 22.6075 18.9903 24.2597 18.9903 25.9852 19.1174 27.784 19.3765 29.5828 19.6355 31.4501 19.9924 33.3858 20.4469L33.3858 16.8542C33.3858 13.149 32.6134 10.5388 31.0786 9.02833 29.5388 7.51791 26.8846 6.76025 23.1207 6.76025 21.4099 6.76025 19.6551 6.97533 17.8611 7.40059 16.0672 7.83075 14.3124 8.3831 12.6015 9.06744 11.8048 9.4096 11.2329 9.62468 10.8907 9.70778 10.5485 9.79088 10.2944 9.83487 10.1233 9.83487 9.43893 9.83487 9.09676 9.32162 9.09676 8.29512L9.09676 5.89994C9.09676 5.10318 9.20919 4.53127 9.43893 4.18911 9.66378 3.84694 10.1233 3.50477 10.8076 3.1626 12.5184 2.30719 14.5714 1.56908 16.9666 0.938516 19.3618 0.312839 21.8987-0.00488811 24.5774-0.00488811 30.3942-0.00488811 34.6567 1.31979 37.3647 3.97403 40.0727 6.62338 41.4267 10.6316 41.4267 15.9939L41.4267 31.9047ZM21.5761 39.3493C23.1745 39.3493 24.856 39.0511 26.6255 38.4498 28.395 37.8535 29.9299 36.8123 31.2448 35.3263 32.0415 34.4172 32.5988 33.3711 32.9116 32.2028 33.2245 31.0346 33.3809 29.6219 33.3809 27.9697L33.3809 25.9167C31.9535 25.5746 30.4578 25.3057 28.8887 25.1053 27.3196 24.9049 25.7945 24.8071 24.3134 24.8071 21.0628 24.8071 18.6383 25.4621 17.0399 26.7722 15.4415 28.0871 14.6448 29.969 14.6448 32.4179 14.6448 34.7007 15.246 36.4262 16.4387 37.5944 17.6363 38.7627 19.3471 39.3493 21.5712 39.3493ZM60.8423 44.6528C59.9868 44.6528 59.3563 44.4964 58.9603 44.1836 58.5595 43.8708 58.2173 43.2304 57.9338 42.2577L46.4712 4.44818C46.1828 3.48033 46.046 2.82044 46.046 2.48316 46.046 1.6864 46.4419 1.28557 47.2435 1.28557L52.0339 1.28557C52.9431 1.28557 53.5883 1.44199 53.9598 1.75483 54.3313 2.06767 54.6588 2.7129 54.9423 3.68074L63.1543 36.0156 70.7651 3.68074C70.99 2.7129 71.3077 2.07256 71.7085 1.75483 72.1044 1.44199 72.7643 1.28557 73.6735 1.28557L77.6085 1.28557C78.5225 1.28557 79.1775 1.44199 79.5784 1.75483 79.9743 2.06767 80.292 2.7129 80.5169 3.68074L88.2156 36.4457 96.6818 3.67586C96.9653 2.70801 97.2929 2.06767 97.6644 1.74994 98.0358 1.4371 98.6762 1.28068 99.5903 1.28068L104.122 1.28068C104.918 1.28068 105.319 1.68151 105.319 2.47827 105.319 2.70801 105.29 2.96219 105.236 3.2457 105.177 3.5341 105.065 3.93004 104.894 4.44329L93.0891 42.2528C92.8007 43.2255 92.4585 43.8659 92.0626 44.1787 91.6618 44.4915 91.0361 44.648 90.1807 44.648L85.9867 44.648C85.0726 44.648 84.4176 44.4769 84.0168 44.1347 83.6159 43.7925 83.3031 43.1375 83.0782 42.1648L75.4626 10.6854 67.9349 42.1648C67.7051 43.1375 67.3923 43.7925 66.9964 44.1347 66.5956 44.4769 65.9405 44.648 65.0265 44.648L60.8325 44.648ZM123.63 45.9384C121.064 45.9384 118.556 45.6549 116.102 45.083 113.648 44.516 111.767 43.8561 110.457 43.1131 109.66 42.6585 109.156 42.2039 108.961 41.7444 108.76 41.2898 108.663 40.8352 108.663 40.3758L108.663 37.8926C108.663 36.8661 109.034 36.3528 109.777 36.3528 110.061 36.3528 110.359 36.4115 110.676 36.5239 110.989 36.6412 111.405 36.8123 111.918 37.0372 113.57 37.7802 115.369 38.3521 117.305 38.748 119.24 39.1488 121.181 39.3493 123.122 39.3493 126.201 39.3493 128.582 38.8067 130.263 37.7215 131.945 36.6412 132.785 35.0966 132.785 33.1023 132.785 31.7336 132.345 30.5947 131.461 29.6806 130.576 28.7665 128.938 27.9111 126.543 27.1143L119.441 24.8902C115.848 23.7513 113.238 22.0991 111.615 19.9288 109.992 17.7634 109.176 15.3975 109.176 12.8313 109.176 10.7783 109.616 8.96967 110.501 7.40059 111.385 5.83151 112.554 4.49217 114.005 3.37768 115.457 2.26808 117.158 1.42244 119.094 0.855419 121.03 0.288398 123.083 1.7366e-15 125.253 1.7366e-15 126.333 1.7366e-15 127.433 0.0733216 128.547 0.215077 129.662 0.356832 130.713 0.54258 131.71 0.772321 132.707 1.00206 133.636 1.25624 134.491 1.53975 135.347 1.82815 136.031 2.11166 136.544 2.39517 137.229 2.796 137.713 3.19682 138.001 3.59276 138.285 3.99358 138.426 4.53127 138.426 5.2205L138.426 7.52768C138.426 8.55418 138.055 9.06744 137.312 9.06744 136.911 9.06744 136.285 8.86702 135.43 8.4662 132.634 7.21484 129.496 6.58428 126.02 6.58428 123.224 6.58428 121.059 7.04376 119.519 7.95295 117.979 8.86702 117.212 10.3188 117.212 12.318 117.212 13.6867 117.696 14.8403 118.664 15.7837 119.632 16.7222 121.43 17.6216 124.055 18.477L130.982 20.7011C134.516 21.8449 137.043 23.4091 138.553 25.4084 140.064 27.4027 140.821 29.6855 140.821 32.2517 140.821 34.3634 140.396 36.26 139.541 37.9415 138.685 39.623 137.502 41.065 135.992 42.2626 134.482 43.4601 132.668 44.3742 130.561 44.9999 128.45 45.6256 126.142 45.9384 123.635 45.9384ZM130.537 65.9454C112.495 73.6002 92.8838 77.3005 75.0471 77.3005 48.6024 77.3005 23.0034 70.0466 2.3023 57.9974 0.488811 56.9415-0.85053 58.8039 0.655006 60.1628 19.8457 77.4911 45.2003 87.8979 73.3607 87.8979 93.4508 87.8979 116.787 81.5825 132.878 69.7044 135.542 67.7345 133.26 64.7918 130.537 65.9454ZM135.337 80.4093C134.75 81.8758 136.012 82.4672 137.341 81.3576 145.973 74.133 148.207 58.9994 146.438 56.8145 144.683 54.649 129.589 52.7818 120.374 59.2487 118.957 60.241 119.201 61.6146 120.775 61.4288 125.966 60.808 137.512 59.4198 139.57 62.0545 141.633 64.6941 137.282 75.5555 135.337 80.4044Z" fill="#FFFFFF" fill-rule="nonzero" fill-opacity="1" transform="matrix(1 0 0 1.00106 35 62.0045)"/></g></g></g></g></g></svg>