<svg id="LOGO" xmlns="http://www.w3.org/2000/svg" viewBox="0 0 311.81 249.45"><defs><style>.cls-1{fill:#fff;}</style></defs><title>dfl_logo_RGB_white</title><path class="cls-1" d="M245.84,130.63c.15.56-.34.94-1.35,1.68l-.61.34.21.41c.14.26-.1.65-.52.86l-.92.47c-.42.22-.87.17-1-.09l-.19-.37-1.16.57.18.39c.13.27-.12.65-.55.85l-.93.43c-.43.2-.88.14-1-.13l-.17-.35c-3.58,1.69-7.58,3.47-11.72,5.39l.23.53c.14.26-.12.64-.54.85l-.94.43c-.43.2-.89.13-1-.13l-.24-.52-1.33.64.25.53c.12.27-.12.64-.56.85l-.93.43c-.43.2-.88.14-1-.13l-.24-.51c-1.87.75-3.92,1.06-5.41-1.72-1-2-.37-6.16-1.9-6.62-.44-.23-.47-.19-.47-.19-18.19-3.49-24.36.39-36-2.49-3.67-.9-5.66-4.27-10.18-4.32-9.81-.29-12.75-.16-23.43-.56-.45,1.54-.52,1.88-.52,1.88l-37.54-.18,5.74,2.81,1.84,16.56s-1.52.44-2,.49c.88,8,1.08,15.88,1.23,21.34,0,.4-.05.79-.09,1.17a9,9,0,0,1-.2,1.51,8.67,8.67,0,0,1-3.59,5.06,23.46,23.46,0,0,1-2.63,1.68l0,0a48,48,0,0,1-5.51,3.11,12.44,12.44,0,0,0,.53,1.29c-22.83,11-51.13,14.79-60.29,32.32-1.06,2-4.78,1-4.89-1.21,0-1,0-2.64,0-3.54h-.33c-.3,0-.52-.41-.5-.88l0-1c0-.47.28-.84.57-.83l.4,0a19.84,19.84,0,0,1,.58-3l-.35-.12c-.28-.1-.37-.55-.21-1l.34-1c.17-.45.51-.72.8-.63l.34.13c1.63-3.8,4.77-5.5,6.24-9.08l-.24-.08c-.29-.11-.39-.55-.22-1l.34-1c.16-.44.51-.72.8-.62l.25.08c.22-.52.47-1.1.76-1.67l-.31-.2c-.26-.17-.26-.62,0-1l.56-.87c.24-.4.65-.59.9-.43l.13.07.14,0c.07,0,.11,0,.19-.08a6.17,6.17,0,0,1,.45-.45,4.15,4.15,0,0,1,4.84-.06c1.43.87,7,4.06,12.44-.79,8.89-8,19.3-18.84,27.13-19.21-2.12-4.57-5.81-14.16-6.23-17.7l-2.63-.56C80.37,146.57,77,133,76.1,122.74c0,0-1.11-11,0-14.89-.6-.06-1.71.84-2,.85-1.43-3.51,3.22-33.2,7.82-41.85L88.92,64c-.73-.09-5.83-.32-19.25-1.41-7.48,6.62-16.14,13.77-20.52,17.66-.74.54-2,4.79-2,4.79S44.92,87,42.86,88.46c-2.72,1.9-9.36,3.37-10.8,1.12-.33-.56-.27-.8,0-1.13,1-1.08,4.92-2.93,6.23-5.39-2.12,1.06-4.49,2.2-6.34,2-.81,0-1.22-2-.18-2.39,2.82-1.19,5.06-1.71,6.72-4s3.55-3.76,6.11-3.81c0,0,12.48-16.3,19.83-24,2-2.12,5.81-1.42,5.81-1.42l.64-2.47s25.22-3,36.95.88c-.28-7.13,2.93-16.59,14.08-16.59,5.74,0,14.17,5.07,15.3,11.22.35,1.9-.75,3.15-1.33,5.55-1,3.63.39,7.65,0,8.92-.33,1-1.5.95-2.51,2.36a23.24,23.24,0,0,0-2.31,4.35h0L129.54,67l-7.88-.57,0,0h0c-2.87,6.2-8.78,18.83-10.83,31.36h0c6.17.53,34.15,4.57,34.15,4.57l.68,2.28.32,0c1.82.33,11.46,1.37,21.11,6,2.15.53,7.58-.29,11.13,1.35.24-.14.84-.74,1-.9,12.58,3.87,23,10.46,35.1,13.4l7.58,1.75c11.91,1.89,14,1.32,18.61,1.66,2,.16,4.47-.21,5.26,2.71m3.63-22.79a15.59,15.59,0,1,1,15.59,15.59A15.59,15.59,0,0,1,249.46,107.84Z"/><path class="cls-1" d="M154.36,168.76h21.82c17.12,0,21.61,7,21.61,24.42,0,16.91-4.91,24.48-21.61,24.48H154.36Zm21.47,39.57c7.16,0,9.47-3.72,9.47-15.15s-2.32-15.08-9.47-15.08h-9.26v30.24Zm43-30.24v11.36h18.31v9.19H218.82v19H206.61v-48.9h33.54v9.33Zm28.58-9.33H259.6v39.57h21v9.33H247.4Z"/></svg>