<svg width="1000" height="800" viewBox="0 0 1000 800" fill="none" xmlns="http://www.w3.org/2000/svg">
<path d="M233.742 496.25C159.446 433.954 149.74 350.746 220.506 284.92C310.862 200.918 500.309 174.887 653.225 222.977L900.644 0H0V799.965H5.55899L309.803 542.398C279.714 529.163 254.213 513.545 233.742 496.25Z" fill="#D20514"/>
<path d="M999.912 0V799.965H104.915L382.158 534.28L359.481 525.81C325.951 513.28 298.244 497.397 276.891 479.484C214.506 427.159 206.388 357.363 265.772 302.038C340.863 232.154 497.661 210.006 625.43 248.742L508.779 357.275C487.161 355.864 465.454 361.157 453.454 372.275C440.748 384.011 442.513 398.835 455.749 409.953C460.337 413.747 466.249 417.189 473.396 419.836C501.368 430.336 537.898 426.012 554.84 410.218C566.928 399.012 565.781 385.158 554.311 374.305L670.961 265.772C694.785 276.626 714.992 289.155 731.492 303.009C793.876 355.334 802.082 425.13 742.61 480.455C707.227 513.28 651.637 537.016 587.135 547.163C585.899 545.84 584.487 544.516 582.987 543.28C577.075 538.339 569.487 533.928 560.223 530.486C523.957 516.898 476.573 522.545 454.514 543.016C438.101 558.281 440.395 577.517 457.602 591.988C463.513 596.93 471.102 601.341 480.367 604.782C516.633 618.371 564.105 612.724 586.076 592.253C590.929 587.753 594.106 582.9 595.782 577.87C675.549 566.399 744.64 537.721 788.053 497.396C858.819 431.571 849.024 348.451 774.816 286.155C754.257 268.949 728.757 253.242 698.668 240.007L948.469 0H999.912ZM486.279 554.929C497.75 544.252 522.281 541.339 541.075 548.398C545.84 550.163 549.811 552.458 552.899 555.017C561.899 562.517 563.046 572.487 554.487 580.429C543.016 591.105 518.486 594.018 499.691 586.959C494.927 585.194 490.956 582.9 487.868 580.341C478.868 572.841 477.721 562.87 486.279 554.929Z" fill="#D20514"/>
</svg>
