<svg width="2000" height="400" viewBox="0 0 2000 400" fill="none" xmlns="http://www.w3.org/2000/svg">
<path d="M116.653 247.663C79.5742 216.573 74.7301 175.046 110.047 142.195C155.141 100.272 249.688 87.2815 326.003 111.281L449.482 0.000904083H0V399.237H2.77431L154.613 270.694C139.596 264.088 126.869 256.294 116.653 247.663Z" fill="white"/>
<path d="M270.032 273.689C260.653 270.166 248.41 271.619 242.686 276.948C238.414 280.911 238.987 285.887 243.478 289.63C245.02 290.907 247.001 292.052 249.379 292.933C258.759 296.456 271.001 295.003 276.726 289.674C280.998 285.711 280.425 280.735 275.933 276.992C274.392 275.715 272.41 274.57 270.032 273.689Z" fill="white"/>
<path d="M473.35 0.000904083L348.682 119.78C363.699 126.386 376.426 134.225 386.686 142.812C423.721 173.901 428.609 215.384 393.292 248.235C371.626 268.36 337.145 282.672 297.336 288.397C296.499 290.907 294.914 293.329 292.492 295.575C281.527 305.791 257.835 308.609 239.736 301.828C235.112 300.11 231.325 297.909 228.374 295.443C219.787 288.221 218.642 278.621 226.833 271.002C237.842 260.786 261.49 257.967 279.589 264.749C284.213 266.466 288 268.668 290.95 271.134C291.699 271.751 292.404 272.411 293.02 273.072C325.211 268.008 352.954 256.162 370.613 239.78C400.293 212.169 396.198 177.336 365.064 151.223C356.829 144.309 346.745 138.056 334.855 132.639L276.639 186.804C282.363 192.221 282.936 199.134 276.903 204.727C268.448 212.61 250.217 214.767 236.257 209.527C232.69 208.206 229.74 206.489 227.45 204.595C220.844 199.046 219.963 191.648 226.305 185.791C232.294 180.243 243.127 177.601 253.916 178.305L312.132 124.14C248.367 104.808 170.114 115.861 132.639 150.738C103.002 178.349 107.054 213.182 138.187 239.296C148.844 248.235 162.672 256.162 179.406 262.415L190.723 266.643L52.3601 399.237H499.023V0.000904083H473.35Z" fill="white"/>
<path d="M716.727 167.364C697.684 167.364 679.445 164.414 662.548 158.379V126.864C681.993 133.301 699.427 135.715 716.459 135.715C734.966 135.715 743.146 130.887 743.146 118.281C743.146 107.418 739.66 104.2 724.908 101.115L698.086 95.6169C670.058 89.8502 660.804 78.4512 660.804 50.9592C660.804 15.5549 681.591 0.266666 723.567 0.266666C742.61 0.266666 760.446 3.48519 774.93 9.11769V40.6329C757.496 34.5981 741.537 32.05 725.846 32.05C705.864 32.05 699.159 37.4143 699.159 49.8863C699.159 60.3467 703.853 63.297 716.727 66.1133L742.878 71.6117C773.186 78.0489 781.501 88.241 781.501 117.208C781.501 151.674 760.178 167.498 716.593 167.498" fill="white"/>
<path d="M809.127 164.684V3.21854H881.411C922.85 3.21854 936.261 22.6642 936.261 55.7887C936.261 88.9132 922.85 108.627 881.411 108.627H849.494V164.684H809.127ZM849.494 81.269H875.913C890.531 81.269 896.699 72.6862 896.699 55.7887C896.699 38.8912 890.396 30.5764 875.913 30.5764H849.494V81.269Z" fill="white"/>
<path d="M1033.62 167.366C978.504 167.366 953.291 140.276 953.291 83.6829C953.291 27.0897 978.504 1.52588e-05 1033.62 1.52588e-05C1088.74 1.52588e-05 1113.95 27.0897 1113.95 83.6829C1113.95 140.276 1088.87 167.366 1033.62 167.366ZM1033.62 135.448C1062.59 135.448 1073.05 121.099 1073.05 83.8171C1073.05 46.5352 1062.59 32.3199 1033.62 32.3199C1004.65 32.3199 994.462 46.6693 994.462 83.8171C994.462 120.965 1004.92 135.448 1033.62 135.448Z" fill="white"/>
<path d="M1142.38 164.684V3.21854H1217.88C1257.98 3.21854 1271.8 18.775 1271.8 53.777C1271.8 81.5373 1262.54 96.8255 1236.52 101.787L1281.18 164.818H1236.26L1194.55 103.397H1182.48V164.818H1142.11L1142.38 164.684ZM1182.75 77.1117H1209.17C1226.06 77.1117 1232.1 70.1381 1232.1 53.777C1232.1 37.416 1226.06 30.5764 1209.17 30.5764H1182.75V77.1117Z" fill="white"/>
<path d="M1334.29 164.684V33.9291H1287.22V3.21854H1421.59V33.9291H1374.52V164.684H1334.29Z" fill="white"/>
<path d="M1443.99 164.684V3.21854H1557.04V33.9291H1484.36V67.9924H1544.84V98.4348H1484.36V133.839H1558.65V164.684H1443.99Z" fill="white"/>
<path d="M1656.01 167.366C1602.5 167.366 1576.76 141.617 1576.76 83.6829C1576.76 25.7486 1602.5 1.52588e-05 1656.01 1.52588e-05C1673.18 1.52588e-05 1689.54 2.81626 1704.43 8.58287V39.5616C1688.73 34.1973 1673.58 31.9175 1658.83 31.9175C1628.92 31.9175 1618.06 46.2671 1618.06 83.5489C1618.06 120.831 1628.92 135.18 1658.83 135.18C1673.71 135.18 1688.73 132.9 1704.43 127.536V158.515C1689.54 164.281 1673.18 167.098 1656.01 167.098" fill="white"/>
<path d="M716.727 399.102C697.684 399.102 679.445 396.151 662.548 390.117V358.601C681.993 365.039 699.427 367.452 716.459 367.452C734.966 367.452 743.146 362.625 743.146 350.019C743.146 339.156 739.66 335.937 724.908 332.853L698.086 327.354C670.058 321.588 660.804 310.189 660.804 282.697C660.804 247.292 681.591 232.004 723.567 232.004C742.61 232.004 760.446 235.223 775.064 240.855V272.37C757.63 266.336 741.671 263.788 725.981 263.788C705.999 263.788 699.293 269.152 699.293 281.624C699.293 292.084 703.987 295.035 716.861 297.851L743.012 303.349C773.32 309.786 781.635 319.979 781.635 348.946C781.635 383.411 760.312 399.236 716.727 399.236" fill="white"/>
<path d="M881.411 399.103C826.293 399.103 801.081 372.014 801.081 315.421C801.081 258.827 826.293 231.738 881.411 231.738C936.529 231.738 961.741 258.827 961.741 315.421C961.741 372.014 936.663 399.103 881.411 399.103ZM881.411 367.052C910.378 367.052 920.838 352.702 920.838 315.421C920.838 278.139 910.378 264.058 881.411 264.058C852.444 264.058 842.251 278.407 842.251 315.421C842.251 352.434 852.712 367.052 881.411 367.052Z" fill="white"/>
<path d="M990.307 396.288V234.822H1030.54V365.443H1099.87V396.288H990.307Z" fill="white"/>
<path d="M1188.38 399.104C1140.24 399.104 1118.24 381.67 1118.24 343.717V234.822H1158.61V342.511C1158.61 360.347 1166.66 367.052 1188.52 367.052C1210.38 367.052 1218.42 360.347 1218.42 342.511V234.822H1258.79V343.717C1258.79 381.67 1236.8 399.104 1188.65 399.104" fill="white"/>
<path d="M1326.78 396.288V265.667H1279.84V234.822H1414.22V265.667H1367.15V396.288H1326.78Z" fill="white"/>
<path d="M1476.98 234.822H1436.62V396.288H1476.98V234.822Z" fill="white"/>
<path d="M1585.88 399.103C1530.76 399.103 1505.55 372.014 1505.55 315.421C1505.55 258.827 1530.76 231.738 1585.88 231.738C1641 231.738 1666.21 258.827 1666.21 315.421C1666.21 372.014 1641.13 399.103 1585.88 399.103ZM1585.88 367.052C1614.84 367.052 1625.3 352.702 1625.3 315.421C1625.3 278.139 1614.84 264.058 1585.88 264.058C1556.91 264.058 1546.72 278.407 1546.72 315.421C1546.72 352.434 1557.18 367.052 1585.88 367.052Z" fill="white"/>
<path d="M1694.64 396.288V234.822H1743.86L1812.38 351.496V234.822H1849.93V396.288H1800.72L1732.19 279.48V396.288H1694.64Z" fill="white"/>
<path d="M1935.09 399.102C1916.05 399.102 1897.81 396.151 1880.91 390.117V358.601C1900.36 365.039 1917.79 367.452 1934.82 367.452C1953.33 367.452 1961.51 362.625 1961.51 350.019C1961.51 339.156 1958.02 335.937 1943.27 332.853L1916.45 327.354C1888.42 321.588 1879.17 310.189 1879.17 282.697C1879.17 247.292 1899.96 232.004 1941.93 232.004C1960.97 232.004 1978.81 235.223 1993.43 240.855V272.37C1975.99 266.336 1960.04 263.788 1944.35 263.788C1924.36 263.788 1917.66 269.152 1917.66 281.624C1917.66 292.084 1922.35 295.035 1935.23 297.851L1961.38 303.349C1991.69 309.786 2000 319.979 2000 348.946C2000 383.411 1978.68 399.236 1935.09 399.236" fill="white"/>
</svg>
